# xmcd CD database file
#
# Track frame offsets:
#	150
#	27185
#	53945
#
# Disc length: 1078 seconds
#
# Revision: 0
# Processed by: cddbd v1.5PL3 Copyright (c) Steve Scherf et al.
# Submitted via: CDex 1.50beta9
#
DISCID=1e043403
DTITLE=内田有紀＆ｍ．ｃ．Ａ・Ｔ - ＥＶＥＲ　＆　ＥＶＥＲ
DYEAR=1996
DGENRE=J-POP
TTITLE0=ＥＶＥＲ　＆　ＥＶＥＲ
TTITLE1=ＥＶＥＲ　＆　ＥＶＥＲ　GET UP ＆ DANCE MIX
TTITLE2=ＥＶＥＲ　＆　ＥＶＥＲ　inst.
EXTD=YEAR: 1996
EXTT0=
EXTT1=
EXTT2=
PLAYORDER=
